<svg xmlns="http://www.w3.org/2000/svg" width="440" height="220" viewBox="0 0 440 220"><defs><linearGradient id="bg" x2="1" y2="1"><stop stop-color="#25304e"/><stop offset="1" stop-color="#111a30"/></linearGradient></defs><rect width="440" height="220" rx="22" fill="url(#bg)"/><path d="M0 183 440 55v165H0Z" fill="#ff846b" opacity=".035"/><circle cx="220" cy="110" r="86" fill="#ff846b" opacity=".07"/><circle cx="220" cy="110" r="67" fill="none" stroke="#ff846b" opacity=".2" stroke-dasharray="5 10"/><ellipse cx="220" cy="173" rx="58" ry="11" fill="#000" opacity=".2"/><g transform="translate(220 107)"><path d="M-52 33h104" stroke="#ff846b" stroke-width="9"/><path d="M12 33V-7h22v40" fill="#ffcf70"/><circle cx="-15" cy="-38" r="12" fill="#fff"/><path d="m-18-19 17 12 12-12m-29 0-20 25m21-10-10 22" fill="none" stroke="#ff846b" stroke-width="11" stroke-linecap="round"/></g><g transform="translate(63 60) rotate(-14)"><rect x="-17" y="-13" width="34" height="27" rx="11" fill="#80f5cd"/><path d="M-6-3v7m12-7v7" stroke="#172238" stroke-width="3" stroke-linecap="round"/></g><g transform="translate(375 153) rotate(9)"><rect x="-17" y="-13" width="34" height="27" rx="11" fill="#ff846b"/><path d="M-6-3v7m12-7v7" stroke="#172238" stroke-width="3" stroke-linecap="round"/></g><g transform="translate(77 169) rotate(7)"><rect x="-17" y="-13" width="34" height="27" rx="11" fill="#b6a1ff"/><path d="M-6-3v7m12-7v7" stroke="#172238" stroke-width="3" stroke-linecap="round"/></g><g transform="translate(363 49) rotate(-10)"><rect x="-17" y="-13" width="34" height="27" rx="11" fill="#78caff"/><path d="M-6-3v7m12-7v7" stroke="#172238" stroke-width="3" stroke-linecap="round"/></g></svg>