<svg xmlns="http://www.w3.org/2000/svg" width="440" height="220" viewBox="0 0 440 220"><defs><linearGradient id="bg" x2="1" y2="1"><stop stop-color="#25304e"/><stop offset="1" stop-color="#111a30"/></linearGradient></defs><rect width="440" height="220" rx="22" fill="url(#bg)"/><path d="M0 183 440 55v165H0Z" fill="#80f5cd" opacity=".035"/><circle cx="220" cy="110" r="86" fill="#80f5cd" opacity=".07"/><circle cx="220" cy="110" r="67" fill="none" stroke="#80f5cd" opacity=".2" stroke-dasharray="5 10"/><ellipse cx="220" cy="173" rx="58" ry="11" fill="#000" opacity=".2"/><g transform="translate(220 107)"><rect x="-46" y="28" width="37" height="13" rx="5" fill="#80f5cd"/><rect x="-4" y="-1" width="37" height="13" rx="5" fill="#b6a1ff"/><rect x="21" y="-32" width="37" height="13" rx="5" fill="#ffcf70"/><path d="M-26 14q0-48 36-54" fill="none" stroke="#fff" stroke-width="5" stroke-dasharray="8 8"/><circle cx="-27" cy="10" r="11" fill="#fff"/></g><g transform="translate(63 60) rotate(-14)"><rect x="-17" y="-13" width="34" height="27" rx="11" fill="#80f5cd"/><path d="M-6-3v7m12-7v7" stroke="#172238" stroke-width="3" stroke-linecap="round"/></g><g transform="translate(375 153) rotate(9)"><rect x="-17" y="-13" width="34" height="27" rx="11" fill="#ff846b"/><path d="M-6-3v7m12-7v7" stroke="#172238" stroke-width="3" stroke-linecap="round"/></g><g transform="translate(77 169) rotate(7)"><rect x="-17" y="-13" width="34" height="27" rx="11" fill="#b6a1ff"/><path d="M-6-3v7m12-7v7" stroke="#172238" stroke-width="3" stroke-linecap="round"/></g><g transform="translate(363 49) rotate(-10)"><rect x="-17" y="-13" width="34" height="27" rx="11" fill="#78caff"/><path d="M-6-3v7m12-7v7" stroke="#172238" stroke-width="3" stroke-linecap="round"/></g></svg>